<mxfile host="app.diagrams.net" modified="2023-09-26T08:06:09.363Z" agent="Mozilla/5.0 (Windows NT 10.0; Win64; x64) AppleWebKit/537.36 (KHTML, like Gecko) Chrome/116.0.0.0 Safari/537.36" version="21.8.2" etag="IcfZ7sNqV023q1inOC8e" type="device">
  <diagram id="6sLeW2a60C-e_OgsYwuE" name="Страница — 1">
    <mxGraphModel dx="1105" dy="562" grid="1" gridSize="10" guides="1" tooltips="1" connect="1" arrows="1" fold="1" page="1" pageScale="1" pageWidth="827" pageHeight="1169" math="0" shadow="0">
      <root>
        <mxCell id="0" />
        <mxCell id="1" parent="0" />
        <mxCell id="HcRXLN155REvlosKkTxs-1" value="&lt;p style=&quot;margin:0px;margin-top:4px;text-align:center;&quot;&gt;&lt;i&gt;&amp;lt;&amp;lt;Interface&amp;gt;&amp;gt;&lt;/i&gt;&lt;br&gt;&lt;b&gt;IObserver&lt;/b&gt;&lt;/p&gt;&lt;hr size=&quot;1&quot;&gt;&lt;p style=&quot;margin:0px;margin-left:4px;&quot;&gt;+ Update(T const&amp;amp; data)&lt;br&gt;&lt;/p&gt;" style="verticalAlign=top;align=left;overflow=fill;fontSize=12;fontFamily=Helvetica;html=1;whiteSpace=wrap;" vertex="1" parent="1">
          <mxGeometry x="840" y="260" width="190" height="80" as="geometry" />
        </mxCell>
        <mxCell id="HcRXLN155REvlosKkTxs-2" value="&lt;p style=&quot;margin:0px;margin-top:4px;text-align:center;&quot;&gt;&lt;i&gt;&amp;lt;&amp;lt;Interface&amp;gt;&amp;gt;&lt;/i&gt;&lt;br&gt;&lt;b&gt;IObservable&lt;/b&gt;&lt;/p&gt;&lt;hr size=&quot;1&quot;&gt;&lt;p style=&quot;border-color: var(--border-color); margin: 0px 0px 0px 4px;&quot;&gt;+ RegisterObserver(o: IObserver, const int priority = 0 )&lt;/p&gt;&lt;p style=&quot;border-color: var(--border-color); margin: 0px 0px 0px 4px;&quot;&gt;+ RemoveObserver(o: IObserver)&lt;/p&gt;&lt;p style=&quot;border-color: var(--border-color); margin: 0px 0px 0px 4px;&quot;&gt;+ NotifyObservers()&lt;/p&gt;" style="verticalAlign=top;align=left;overflow=fill;fontSize=12;fontFamily=Helvetica;html=1;whiteSpace=wrap;" vertex="1" parent="1">
          <mxGeometry x="399" y="30" width="321" height="100" as="geometry" />
        </mxCell>
        <mxCell id="HcRXLN155REvlosKkTxs-3" value="&lt;p style=&quot;margin:0px;margin-top:4px;text-align:center;&quot;&gt;&lt;b&gt;CObservable&lt;/b&gt;&lt;/p&gt;&lt;hr size=&quot;1&quot;&gt;&lt;p style=&quot;margin:0px;margin-left:4px;&quot;&gt;+ m_observers: multimap&amp;lt;int, IObserver&amp;lt;T&amp;gt;*&amp;gt;&lt;/p&gt;&amp;nbsp;+ m_observersLock: bool&lt;br&gt;&lt;hr size=&quot;1&quot;&gt;&lt;p style=&quot;border-color: var(--border-color); margin: 0px 0px 0px 4px;&quot;&gt;+ RegisterObserver(o: IObserver, const int priority = 0)&lt;/p&gt;&lt;p style=&quot;border-color: var(--border-color); margin: 0px 0px 0px 4px;&quot;&gt;+ RemoveObserver(o: IObserver)&lt;/p&gt;&lt;p style=&quot;border-color: var(--border-color); margin: 0px 0px 0px 4px;&quot;&gt;+ NotifyObservers()&lt;/p&gt;&lt;p style=&quot;border-color: var(--border-color); margin: 0px 0px 0px 4px;&quot;&gt;+ GetChangedData() : T&lt;/p&gt;" style="verticalAlign=top;align=left;overflow=fill;fontSize=12;fontFamily=Helvetica;html=1;whiteSpace=wrap;" vertex="1" parent="1">
          <mxGeometry x="280" y="220" width="300" height="140" as="geometry" />
        </mxCell>
        <mxCell id="HcRXLN155REvlosKkTxs-5" value="1" style="endArrow=open;html=1;endSize=12;startArrow=diamondThin;startSize=14;startFill=0;edgeStyle=orthogonalEdgeStyle;align=left;verticalAlign=bottom;rounded=0;entryX=0;entryY=0.5;entryDx=0;entryDy=0;exitX=0.998;exitY=0.582;exitDx=0;exitDy=0;exitPerimeter=0;" edge="1" parent="1" source="HcRXLN155REvlosKkTxs-3" target="HcRXLN155REvlosKkTxs-1">
          <mxGeometry x="-1" y="3" relative="1" as="geometry">
            <mxPoint x="560" y="140" as="sourcePoint" />
            <mxPoint x="720" y="140" as="targetPoint" />
          </mxGeometry>
        </mxCell>
        <mxCell id="HcRXLN155REvlosKkTxs-6" value="SWeatherInfo" style="swimlane;fontStyle=0;childLayout=stackLayout;horizontal=1;startSize=26;fillColor=none;horizontalStack=0;resizeParent=1;resizeParentMax=0;resizeLast=0;collapsible=1;marginBottom=0;whiteSpace=wrap;html=1;" vertex="1" parent="1">
          <mxGeometry x="690" y="900" width="190" height="104" as="geometry" />
        </mxCell>
        <mxCell id="HcRXLN155REvlosKkTxs-7" value="+ temperature = 0: double" style="text;strokeColor=none;fillColor=none;align=left;verticalAlign=top;spacingLeft=4;spacingRight=4;overflow=hidden;rotatable=0;points=[[0,0.5],[1,0.5]];portConstraint=eastwest;whiteSpace=wrap;html=1;" vertex="1" parent="HcRXLN155REvlosKkTxs-6">
          <mxGeometry y="26" width="190" height="26" as="geometry" />
        </mxCell>
        <mxCell id="HcRXLN155REvlosKkTxs-8" value="+ humidity = 0: double" style="text;strokeColor=none;fillColor=none;align=left;verticalAlign=top;spacingLeft=4;spacingRight=4;overflow=hidden;rotatable=0;points=[[0,0.5],[1,0.5]];portConstraint=eastwest;whiteSpace=wrap;html=1;" vertex="1" parent="HcRXLN155REvlosKkTxs-6">
          <mxGeometry y="52" width="190" height="26" as="geometry" />
        </mxCell>
        <mxCell id="HcRXLN155REvlosKkTxs-9" value="+ pressure = 0: double" style="text;strokeColor=none;fillColor=none;align=left;verticalAlign=top;spacingLeft=4;spacingRight=4;overflow=hidden;rotatable=0;points=[[0,0.5],[1,0.5]];portConstraint=eastwest;whiteSpace=wrap;html=1;" vertex="1" parent="HcRXLN155REvlosKkTxs-6">
          <mxGeometry y="78" width="190" height="26" as="geometry" />
        </mxCell>
        <mxCell id="HcRXLN155REvlosKkTxs-10" value="CDisplay" style="swimlane;fontStyle=1;align=center;verticalAlign=top;childLayout=stackLayout;horizontal=1;startSize=26;horizontalStack=0;resizeParent=1;resizeParentMax=0;resizeLast=0;collapsible=1;marginBottom=0;whiteSpace=wrap;html=1;" vertex="1" parent="1">
          <mxGeometry x="930" y="400" width="215" height="52" as="geometry" />
        </mxCell>
        <mxCell id="HcRXLN155REvlosKkTxs-11" value="+ Update(SWeatherInfo&amp;nbsp; const&amp;amp; data)" style="text;strokeColor=none;fillColor=none;align=left;verticalAlign=top;spacingLeft=4;spacingRight=4;overflow=hidden;rotatable=0;points=[[0,0.5],[1,0.5]];portConstraint=eastwest;whiteSpace=wrap;html=1;" vertex="1" parent="HcRXLN155REvlosKkTxs-10">
          <mxGeometry y="26" width="215" height="26" as="geometry" />
        </mxCell>
        <mxCell id="HcRXLN155REvlosKkTxs-13" value="Use" style="endArrow=open;endSize=12;dashed=1;html=1;rounded=0;entryX=1;entryY=0;entryDx=0;entryDy=0;" edge="1" parent="1" source="HcRXLN155REvlosKkTxs-11" target="HcRXLN155REvlosKkTxs-6">
          <mxGeometry width="160" relative="1" as="geometry">
            <mxPoint x="1030" y="420" as="sourcePoint" />
            <mxPoint x="1190" y="420" as="targetPoint" />
          </mxGeometry>
        </mxCell>
        <mxCell id="HcRXLN155REvlosKkTxs-14" value="CStatsDisplay" style="swimlane;fontStyle=1;align=center;verticalAlign=top;childLayout=stackLayout;horizontal=1;startSize=26;horizontalStack=0;resizeParent=1;resizeParentMax=0;resizeLast=0;collapsible=1;marginBottom=0;whiteSpace=wrap;html=1;" vertex="1" parent="1">
          <mxGeometry x="560" y="400" width="310" height="244" as="geometry" />
        </mxCell>
        <mxCell id="HcRXLN155REvlosKkTxs-15" value="+ m_count: unsigned&amp;nbsp;" style="text;strokeColor=none;fillColor=none;align=left;verticalAlign=top;spacingLeft=4;spacingRight=4;overflow=hidden;rotatable=0;points=[[0,0.5],[1,0.5]];portConstraint=eastwest;whiteSpace=wrap;html=1;" vertex="1" parent="HcRXLN155REvlosKkTxs-14">
          <mxGeometry y="26" width="310" height="26" as="geometry" />
        </mxCell>
        <mxCell id="HcRXLN155REvlosKkTxs-16" value="+ m_temperatureStats: NumericStatsData" style="text;strokeColor=none;fillColor=none;align=left;verticalAlign=top;spacingLeft=4;spacingRight=4;overflow=hidden;rotatable=0;points=[[0,0.5],[1,0.5]];portConstraint=eastwest;whiteSpace=wrap;html=1;" vertex="1" parent="HcRXLN155REvlosKkTxs-14">
          <mxGeometry y="52" width="310" height="26" as="geometry" />
        </mxCell>
        <mxCell id="HcRXLN155REvlosKkTxs-17" value="+ m_humidityStats: NumericStatsData" style="text;strokeColor=none;fillColor=none;align=left;verticalAlign=top;spacingLeft=4;spacingRight=4;overflow=hidden;rotatable=0;points=[[0,0.5],[1,0.5]];portConstraint=eastwest;whiteSpace=wrap;html=1;" vertex="1" parent="HcRXLN155REvlosKkTxs-14">
          <mxGeometry y="78" width="310" height="26" as="geometry" />
        </mxCell>
        <mxCell id="HcRXLN155REvlosKkTxs-18" value="+ m_pressureStats: NumericStatsData" style="text;strokeColor=none;fillColor=none;align=left;verticalAlign=top;spacingLeft=4;spacingRight=4;overflow=hidden;rotatable=0;points=[[0,0.5],[1,0.5]];portConstraint=eastwest;whiteSpace=wrap;html=1;" vertex="1" parent="HcRXLN155REvlosKkTxs-14">
          <mxGeometry y="104" width="310" height="26" as="geometry" />
        </mxCell>
        <mxCell id="HcRXLN155REvlosKkTxs-19" value="" style="line;strokeWidth=1;fillColor=none;align=left;verticalAlign=middle;spacingTop=-1;spacingLeft=3;spacingRight=3;rotatable=0;labelPosition=right;points=[];portConstraint=eastwest;strokeColor=inherit;" vertex="1" parent="HcRXLN155REvlosKkTxs-14">
          <mxGeometry y="130" width="310" height="8" as="geometry" />
        </mxCell>
        <mxCell id="HcRXLN155REvlosKkTxs-20" value="+UpdateNumericStatsData(double current, NumericStatsData&amp;amp; statsData)" style="text;strokeColor=none;fillColor=none;align=left;verticalAlign=top;spacingLeft=4;spacingRight=4;overflow=hidden;rotatable=0;points=[[0,0.5],[1,0.5]];portConstraint=eastwest;whiteSpace=wrap;html=1;" vertex="1" parent="HcRXLN155REvlosKkTxs-14">
          <mxGeometry y="138" width="310" height="40" as="geometry" />
        </mxCell>
        <mxCell id="HcRXLN155REvlosKkTxs-21" value="+&amp;nbsp;DisplayNumericStatsData(const NumericStatsData&amp;amp; statsData, const char* text)" style="text;strokeColor=none;fillColor=none;align=left;verticalAlign=top;spacingLeft=4;spacingRight=4;overflow=hidden;rotatable=0;points=[[0,0.5],[1,0.5]];portConstraint=eastwest;whiteSpace=wrap;html=1;" vertex="1" parent="HcRXLN155REvlosKkTxs-14">
          <mxGeometry y="178" width="310" height="40" as="geometry" />
        </mxCell>
        <mxCell id="HcRXLN155REvlosKkTxs-22" value="+ Update(SWeatherInfo const&amp;amp; data)" style="text;strokeColor=none;fillColor=none;align=left;verticalAlign=top;spacingLeft=4;spacingRight=4;overflow=hidden;rotatable=0;points=[[0,0.5],[1,0.5]];portConstraint=eastwest;whiteSpace=wrap;html=1;" vertex="1" parent="HcRXLN155REvlosKkTxs-14">
          <mxGeometry y="218" width="310" height="26" as="geometry" />
        </mxCell>
        <mxCell id="HcRXLN155REvlosKkTxs-23" value="NumericStatsData" style="swimlane;fontStyle=0;childLayout=stackLayout;horizontal=1;startSize=26;fillColor=none;horizontalStack=0;resizeParent=1;resizeParentMax=0;resizeLast=0;collapsible=1;marginBottom=0;whiteSpace=wrap;html=1;" vertex="1" parent="1">
          <mxGeometry x="370" y="650" width="180" height="104" as="geometry" />
        </mxCell>
        <mxCell id="HcRXLN155REvlosKkTxs-24" value="+ minimum: double" style="text;strokeColor=none;fillColor=none;align=left;verticalAlign=top;spacingLeft=4;spacingRight=4;overflow=hidden;rotatable=0;points=[[0,0.5],[1,0.5]];portConstraint=eastwest;whiteSpace=wrap;html=1;" vertex="1" parent="HcRXLN155REvlosKkTxs-23">
          <mxGeometry y="26" width="180" height="26" as="geometry" />
        </mxCell>
        <mxCell id="HcRXLN155REvlosKkTxs-25" value="+ maximum: double" style="text;strokeColor=none;fillColor=none;align=left;verticalAlign=top;spacingLeft=4;spacingRight=4;overflow=hidden;rotatable=0;points=[[0,0.5],[1,0.5]];portConstraint=eastwest;whiteSpace=wrap;html=1;" vertex="1" parent="HcRXLN155REvlosKkTxs-23">
          <mxGeometry y="52" width="180" height="26" as="geometry" />
        </mxCell>
        <mxCell id="HcRXLN155REvlosKkTxs-26" value="+ accumulatedValue: double" style="text;strokeColor=none;fillColor=none;align=left;verticalAlign=top;spacingLeft=4;spacingRight=4;overflow=hidden;rotatable=0;points=[[0,0.5],[1,0.5]];portConstraint=eastwest;whiteSpace=wrap;html=1;" vertex="1" parent="HcRXLN155REvlosKkTxs-23">
          <mxGeometry y="78" width="180" height="26" as="geometry" />
        </mxCell>
        <mxCell id="HcRXLN155REvlosKkTxs-28" value="Use" style="endArrow=open;endSize=12;dashed=1;html=1;rounded=0;entryX=-0.003;entryY=0.066;entryDx=0;entryDy=0;entryPerimeter=0;" edge="1" parent="1" source="HcRXLN155REvlosKkTxs-23" target="HcRXLN155REvlosKkTxs-14">
          <mxGeometry width="160" relative="1" as="geometry">
            <mxPoint x="730" y="460" as="sourcePoint" />
            <mxPoint x="890" y="460" as="targetPoint" />
          </mxGeometry>
        </mxCell>
        <mxCell id="HcRXLN155REvlosKkTxs-29" value="Use" style="endArrow=open;endSize=12;dashed=1;html=1;rounded=0;entryX=0.626;entryY=0.019;entryDx=0;entryDy=0;entryPerimeter=0;exitX=0.526;exitY=1.115;exitDx=0;exitDy=0;exitPerimeter=0;" edge="1" parent="1" source="HcRXLN155REvlosKkTxs-22" target="HcRXLN155REvlosKkTxs-6">
          <mxGeometry width="160" relative="1" as="geometry">
            <mxPoint x="730" y="460" as="sourcePoint" />
            <mxPoint x="890" y="460" as="targetPoint" />
          </mxGeometry>
        </mxCell>
        <mxCell id="HcRXLN155REvlosKkTxs-30" value="CWeaterData" style="swimlane;fontStyle=1;align=center;verticalAlign=top;childLayout=stackLayout;horizontal=1;startSize=26;horizontalStack=0;resizeParent=1;resizeParentMax=0;resizeLast=0;collapsible=1;marginBottom=0;whiteSpace=wrap;html=1;" vertex="1" parent="1">
          <mxGeometry x="40" y="650" width="280" height="286" as="geometry" />
        </mxCell>
        <mxCell id="HcRXLN155REvlosKkTxs-31" value="+ m_temperature: double" style="text;strokeColor=none;fillColor=none;align=left;verticalAlign=top;spacingLeft=4;spacingRight=4;overflow=hidden;rotatable=0;points=[[0,0.5],[1,0.5]];portConstraint=eastwest;whiteSpace=wrap;html=1;" vertex="1" parent="HcRXLN155REvlosKkTxs-30">
          <mxGeometry y="26" width="280" height="26" as="geometry" />
        </mxCell>
        <mxCell id="HcRXLN155REvlosKkTxs-32" value="+ m_humidity: double" style="text;strokeColor=none;fillColor=none;align=left;verticalAlign=top;spacingLeft=4;spacingRight=4;overflow=hidden;rotatable=0;points=[[0,0.5],[1,0.5]];portConstraint=eastwest;whiteSpace=wrap;html=1;" vertex="1" parent="HcRXLN155REvlosKkTxs-30">
          <mxGeometry y="52" width="280" height="26" as="geometry" />
        </mxCell>
        <mxCell id="HcRXLN155REvlosKkTxs-33" value="+ m_pressure: double" style="text;strokeColor=none;fillColor=none;align=left;verticalAlign=top;spacingLeft=4;spacingRight=4;overflow=hidden;rotatable=0;points=[[0,0.5],[1,0.5]];portConstraint=eastwest;whiteSpace=wrap;html=1;" vertex="1" parent="HcRXLN155REvlosKkTxs-30">
          <mxGeometry y="78" width="280" height="26" as="geometry" />
        </mxCell>
        <mxCell id="HcRXLN155REvlosKkTxs-34" value="" style="line;strokeWidth=1;fillColor=none;align=left;verticalAlign=middle;spacingTop=-1;spacingLeft=3;spacingRight=3;rotatable=0;labelPosition=right;points=[];portConstraint=eastwest;strokeColor=inherit;" vertex="1" parent="HcRXLN155REvlosKkTxs-30">
          <mxGeometry y="104" width="280" height="8" as="geometry" />
        </mxCell>
        <mxCell id="HcRXLN155REvlosKkTxs-35" value="+ GetTemperature(): double" style="text;strokeColor=none;fillColor=none;align=left;verticalAlign=top;spacingLeft=4;spacingRight=4;overflow=hidden;rotatable=0;points=[[0,0.5],[1,0.5]];portConstraint=eastwest;whiteSpace=wrap;html=1;" vertex="1" parent="HcRXLN155REvlosKkTxs-30">
          <mxGeometry y="112" width="280" height="26" as="geometry" />
        </mxCell>
        <mxCell id="HcRXLN155REvlosKkTxs-36" value="+ GetHumidity(): double" style="text;strokeColor=none;fillColor=none;align=left;verticalAlign=top;spacingLeft=4;spacingRight=4;overflow=hidden;rotatable=0;points=[[0,0.5],[1,0.5]];portConstraint=eastwest;whiteSpace=wrap;html=1;" vertex="1" parent="HcRXLN155REvlosKkTxs-30">
          <mxGeometry y="138" width="280" height="26" as="geometry" />
        </mxCell>
        <mxCell id="HcRXLN155REvlosKkTxs-37" value="+ GetPressure(): double" style="text;strokeColor=none;fillColor=none;align=left;verticalAlign=top;spacingLeft=4;spacingRight=4;overflow=hidden;rotatable=0;points=[[0,0.5],[1,0.5]];portConstraint=eastwest;whiteSpace=wrap;html=1;" vertex="1" parent="HcRXLN155REvlosKkTxs-30">
          <mxGeometry y="164" width="280" height="26" as="geometry" />
        </mxCell>
        <mxCell id="HcRXLN155REvlosKkTxs-38" value="+ MeasurementsChanged()" style="text;strokeColor=none;fillColor=none;align=left;verticalAlign=top;spacingLeft=4;spacingRight=4;overflow=hidden;rotatable=0;points=[[0,0.5],[1,0.5]];portConstraint=eastwest;whiteSpace=wrap;html=1;" vertex="1" parent="HcRXLN155REvlosKkTxs-30">
          <mxGeometry y="190" width="280" height="26" as="geometry" />
        </mxCell>
        <mxCell id="HcRXLN155REvlosKkTxs-39" value="+ SetMeasurements(double temp, double humidity, double pressure)" style="text;strokeColor=none;fillColor=none;align=left;verticalAlign=top;spacingLeft=4;spacingRight=4;overflow=hidden;rotatable=0;points=[[0,0.5],[1,0.5]];portConstraint=eastwest;whiteSpace=wrap;html=1;" vertex="1" parent="HcRXLN155REvlosKkTxs-30">
          <mxGeometry y="216" width="280" height="44" as="geometry" />
        </mxCell>
        <mxCell id="HcRXLN155REvlosKkTxs-40" value="+ GetChangedData(): SWeatherInfo" style="text;strokeColor=none;fillColor=none;align=left;verticalAlign=top;spacingLeft=4;spacingRight=4;overflow=hidden;rotatable=0;points=[[0,0.5],[1,0.5]];portConstraint=eastwest;whiteSpace=wrap;html=1;" vertex="1" parent="HcRXLN155REvlosKkTxs-30">
          <mxGeometry y="260" width="280" height="26" as="geometry" />
        </mxCell>
        <mxCell id="HcRXLN155REvlosKkTxs-41" value="Extends" style="endArrow=block;endSize=16;endFill=0;html=1;rounded=0;entryX=0.408;entryY=0.993;entryDx=0;entryDy=0;entryPerimeter=0;exitX=0.5;exitY=0;exitDx=0;exitDy=0;" edge="1" parent="1" source="HcRXLN155REvlosKkTxs-30" target="HcRXLN155REvlosKkTxs-3">
          <mxGeometry width="160" relative="1" as="geometry">
            <mxPoint x="200" y="640" as="sourcePoint" />
            <mxPoint x="360" y="640" as="targetPoint" />
          </mxGeometry>
        </mxCell>
        <mxCell id="HcRXLN155REvlosKkTxs-42" value="Use" style="endArrow=open;endSize=12;dashed=1;html=1;rounded=0;entryX=-0.016;entryY=0.144;entryDx=0;entryDy=0;entryPerimeter=0;" edge="1" parent="1" source="HcRXLN155REvlosKkTxs-30" target="HcRXLN155REvlosKkTxs-6">
          <mxGeometry width="160" relative="1" as="geometry">
            <mxPoint x="200" y="850" as="sourcePoint" />
            <mxPoint x="360" y="850" as="targetPoint" />
          </mxGeometry>
        </mxCell>
        <mxCell id="HcRXLN155REvlosKkTxs-43" value="" style="endArrow=block;dashed=1;endFill=0;endSize=12;html=1;rounded=0;exitX=0.545;exitY=-0.016;exitDx=0;exitDy=0;exitPerimeter=0;entryX=0.5;entryY=1;entryDx=0;entryDy=0;" edge="1" parent="1" source="HcRXLN155REvlosKkTxs-3" target="HcRXLN155REvlosKkTxs-2">
          <mxGeometry width="160" relative="1" as="geometry">
            <mxPoint x="430" y="220" as="sourcePoint" />
            <mxPoint x="540" y="129" as="targetPoint" />
          </mxGeometry>
        </mxCell>
        <mxCell id="HcRXLN155REvlosKkTxs-44" value="" style="endArrow=block;dashed=1;endFill=0;endSize=12;html=1;rounded=0;exitX=0.434;exitY=-0.005;exitDx=0;exitDy=0;exitPerimeter=0;entryX=0.01;entryY=0.862;entryDx=0;entryDy=0;entryPerimeter=0;" edge="1" parent="1" source="HcRXLN155REvlosKkTxs-14" target="HcRXLN155REvlosKkTxs-1">
          <mxGeometry width="160" relative="1" as="geometry">
            <mxPoint x="690" y="411" as="sourcePoint" />
            <mxPoint x="800" y="320" as="targetPoint" />
          </mxGeometry>
        </mxCell>
        <mxCell id="HcRXLN155REvlosKkTxs-45" value="" style="endArrow=block;dashed=1;endFill=0;endSize=12;html=1;rounded=0;entryX=0.64;entryY=1.02;entryDx=0;entryDy=0;entryPerimeter=0;exitX=0.542;exitY=-0.038;exitDx=0;exitDy=0;exitPerimeter=0;" edge="1" parent="1" source="HcRXLN155REvlosKkTxs-10" target="HcRXLN155REvlosKkTxs-1">
          <mxGeometry width="160" relative="1" as="geometry">
            <mxPoint x="1016" y="400" as="sourcePoint" />
            <mxPoint x="968" y="340" as="targetPoint" />
          </mxGeometry>
        </mxCell>
      </root>
    </mxGraphModel>
  </diagram>
</mxfile>
